<svg width="53" height="54" viewBox="0 0 53 54" fill="none" xmlns="http://www.w3.org/2000/svg">
<g id="fluent:earth-leaf-16-regular" clip-path="url(#clip0_12_1237)">
<path id="Vector 35" d="M8.55508 14.063C9.55666 10.8913 18.849 7.03806 23.37 5.50787C24.622 8.35958 26.8755 14.5638 25.874 16.5669C24.622 19.0709 19.1968 19.2795 18.1535 21.5748C17.1102 23.8701 20.0314 27.8346 19.1968 29.7126C18.3622 31.5905 16.6929 32.6339 12.5196 33.0512C8.3464 33.4685 13.3543 48.4921 8.55508 39.7283C3.75587 30.9646 7.30311 18.0276 8.55508 14.063Z" fill="#FFAB2E" stroke="#FFF8ED" stroke-width="0.417323"/>
<path id="Vector" d="M3.31259 26.9934C3.29639 21.0257 5.5823 15.2817 9.69449 10.957C13.8067 6.63235 19.4283 4.06017 25.3892 3.77591C31.3501 3.49165 37.191 5.51722 41.696 9.43098C46.2011 13.3447 49.0232 18.8451 49.575 24.7873C48.4406 24.4807 47.2947 24.2188 46.1399 24.0022C45.456 19.495 43.2404 15.361 39.866 12.2958C39.5315 12.8921 39.0942 13.644 38.594 14.4423C37.4744 16.2311 35.8678 18.5498 34.2613 19.7523C34.2063 19.7901 34.1562 19.8346 34.1122 19.8848C34.1122 19.9742 34.1453 20.2193 34.3938 20.7791C34.4998 21.0209 34.6521 21.3257 34.8244 21.6735C35.1225 22.2764 35.4935 23.0184 35.8281 23.8432C34.7192 24.0134 33.6235 24.2602 32.5487 24.5819C32.3764 24.2099 32.1975 23.8411 32.0121 23.4755C31.7832 23.0261 31.5657 22.571 31.3595 22.1108C31.068 21.4483 30.75 20.587 30.8063 19.6728C30.8726 18.6128 31.4092 17.7515 32.2738 17.1023C33.3238 16.3139 34.6455 14.5086 35.785 12.6834C36.3349 11.8122 36.802 10.994 37.1332 10.3978L37.2094 10.2586C34.0125 8.20652 30.2923 7.11862 26.4935 7.125H26.3345C26.6359 7.72125 26.9671 8.43344 27.2653 9.22513C28.0735 11.365 28.8023 14.4986 27.5005 17.2679C26.3046 19.8185 24.241 20.481 22.6973 20.8785L22.4754 20.9348C20.9748 21.3224 20.3554 21.4814 19.9049 22.1604C19.4875 22.7964 19.5637 23.5948 20.0374 25.1417L20.1467 25.4895C20.3355 26.0924 20.5608 26.8079 20.6767 27.4836C20.8225 28.325 20.8622 29.3784 20.3322 30.3986C19.8807 31.3102 19.1619 32.0625 18.2718 32.5551C17.5815 32.9054 16.8386 33.1404 16.0723 33.2507L15.8471 33.2904C14.6612 33.4991 14.0583 33.6051 13.4786 34.2246C13.0248 34.7115 12.7433 35.5562 12.581 36.7818C12.5147 37.282 12.4716 37.7789 12.4319 38.2923L12.4087 38.5639C12.3726 39.1537 12.2962 39.7402 12.1801 40.3196L12.0973 40.6839C14.1465 42.842 16.6538 44.5128 19.4345 45.5732C18.8118 46.5007 18.2354 47.4613 17.6988 48.4484C13.4432 46.7025 9.80303 43.7302 7.2413 39.9098C4.67957 36.0893 3.31202 31.5932 3.31259 26.9934ZM6.62509 26.9934C6.61912 30.4474 7.51792 33.8428 9.23202 36.8414L9.29165 36.3446C9.47052 35.003 9.85146 33.254 11.0539 31.9654C12.4286 30.4947 14.1113 30.2164 15.1879 30.0409L15.4926 29.9879C15.9061 29.9401 16.309 29.8248 16.6851 29.6467C16.9969 29.467 17.2438 29.1934 17.3907 28.8649C17.4404 28.7755 17.5 28.5668 17.4106 28.0534C17.308 27.5473 17.173 27.0483 17.0065 26.5594C16.9597 26.4116 16.9133 26.2636 16.8673 26.1156C16.4367 24.7078 15.7643 22.4221 17.1356 20.3386C18.3281 18.5266 20.2461 18.0662 21.4883 17.7648L21.8659 17.672C23.181 17.3308 23.9594 17.0095 24.4993 15.8601C25.2049 14.3628 24.8968 12.3422 24.1648 10.3944C23.7796 9.38148 23.3028 8.40577 22.7404 7.47944C18.2054 8.35309 14.1162 10.7788 11.1753 14.3399C8.23449 17.9009 6.6256 22.375 6.62509 26.9934ZM52.7516 29.4446C52.6037 29.2041 52.3966 29.0054 52.1502 28.8674C51.9038 28.7294 51.6262 28.6567 51.3438 28.6563H51.3173C51.1872 28.6403 51.0578 28.6182 50.9298 28.59C50.5975 28.5111 50.2672 28.4238 49.9393 28.3283L49.6246 28.2422C48.7031 27.975 47.7741 27.7342 46.8388 27.5201C43.6338 26.7825 40.3245 26.6109 37.0603 27.0133C33.0787 27.5101 30.0345 28.8616 27.9576 30.7961C25.8707 32.7472 24.8438 35.2249 24.8438 37.7524C24.8438 38.3586 24.8902 38.9349 24.9697 39.4749C28.4478 36.4406 32.7375 33.9861 37.4777 32.088C37.6798 32.0071 37.8958 31.9668 38.1134 31.9693C38.3311 31.9719 38.5461 32.0173 38.7462 32.103C38.9463 32.1887 39.1275 32.3129 39.2796 32.4686C39.4317 32.6243 39.5516 32.8085 39.6325 33.0105C39.7134 33.2126 39.7537 33.4286 39.7511 33.6463C39.7486 33.8639 39.7032 34.0789 39.6175 34.279C39.5318 34.4791 39.4076 34.6603 39.2519 34.8124C39.0962 34.9645 38.912 35.0844 38.71 35.1653C36.0699 36.222 33.6286 37.441 31.4291 38.8157C25.9568 42.0089 22.5483 46.1098 20.0506 51.1051C19.9454 51.3003 19.8804 51.5147 19.8595 51.7355C19.8387 51.9563 19.8624 52.1791 19.9293 52.3906C19.9962 52.6021 20.1048 52.798 20.2489 52.9667C20.3929 53.1354 20.5694 53.2734 20.7677 53.3726C20.9661 53.4718 21.1824 53.5301 21.4038 53.5441C21.6252 53.5581 21.8471 53.5276 22.0564 53.4542C22.2657 53.3808 22.4582 53.2661 22.6223 53.1169C22.7865 52.9677 22.919 52.7871 23.012 52.5858C24.284 50.0484 25.8045 47.7661 27.8085 45.7355C28.3406 46.7052 28.9891 47.6062 29.7397 48.4186C31.2767 50.0749 33.7578 51.8438 37.2657 51.8438C39.4255 51.8438 41.2208 51.2939 42.6916 50.3333C44.1491 49.3859 45.2025 48.0973 45.9908 46.7458C47.2098 44.6589 47.9088 42.1746 48.4255 40.3328C48.558 39.8691 48.674 39.4484 48.7866 39.084C49.3596 37.2158 50.1977 35.5396 50.9728 34.1683C51.3637 33.4859 51.7314 32.8863 52.0494 32.3762L52.1024 32.2901C52.3595 31.888 52.6004 31.4758 52.8245 31.0545C52.9504 30.8022 53.0098 30.5218 52.9971 30.2401C52.9843 29.9584 52.8998 29.6846 52.7516 29.4446Z" fill="#00454B"/>
</g>
<defs>
<clipPath id="clip0_12_1237">
<rect width="53" height="53" fill="white" transform="translate(0 0.5)"/>
</clipPath>
</defs>
</svg>
